HIERARCHY
ROOT Spine
{
    OFFSET 0.0 0.0 -0.0
    CHANNELS 6 Xposition Yposition Zposition Zrotation Xrotation Yrotation
    JOINT ShoulderCenter
    {
        OFFSET 0.0 0.20571570098400116 0.0
        CHANNELS 3 Zrotation Xrotation Yrotation
        JOINT LeftShoulder
        {
            OFFSET 0.15562626719474792 0.0 0.0
            CHANNELS 3 Zrotation Xrotation Yrotation
            JOINT LeftElbow
            {
                OFFSET 0.20139643549919128 0.0 0.0
                CHANNELS 3 Zrotation Xrotation Yrotation
                JOINT LeftHand
                {
                    OFFSET 0.30991435050964355 0.0 0.0
                    CHANNELS 3 Zrotation Xrotation Yrotation
                    End Site
                    {
                        OFFSET 0.12396572530269623 0.0 0.0
                    }
                }
            }
        }
        JOINT RightShoulder
        {
            OFFSET -0.15562626719474792 0.0 0.0
            CHANNELS 3 Zrotation Xrotation Yrotation
            JOINT RightElbow
            {
                OFFSET -0.20139643549919128 0.0 0.0
                CHANNELS 3 Zrotation Xrotation Yrotation
                JOINT RightHand
                {
                    OFFSET -0.30991435050964355 0.0 0.0
                    CHANNELS 3 Zrotation Xrotation Yrotation
                    End Site
                    {
                        OFFSET -0.12396572530269623 0.0 0.0
                    }
                }
            }
        }
        End Site
        {
            OFFSET 0.0 0.08228626847267151 0.0
        }
    }
    JOINT LeftHip
    {
        OFFSET 0.19021277342712178 -0.19021277342712178 0.0
        CHANNELS 3 Zrotation Xrotation Yrotation
        JOINT LeftKnee
        {
            OFFSET 0.0 -0.3443489074707031 0.0
            CHANNELS 3 Zrotation Xrotation Yrotation
            JOINT LeftFoot
            {
                OFFSET 0.0 -0.3603968024253845 0.0
                CHANNELS 3 Zrotation Xrotation Yrotation
                End Site
                {
                    OFFSET 0.0 0.0 0.144158735871315
                }
            }
        }
    }
    JOINT RightHip
    {
        OFFSET -0.19021277342712178 -0.19021277342712178 0.0
        CHANNELS 3 Zrotation Xrotation Yrotation
        JOINT RightKnee
        {
            OFFSET 0.0 -0.3443489074707031 0.0
            CHANNELS 3 Zrotation Xrotation Yrotation
            JOINT RightFoot
            {
                OFFSET 0.0 -0.3603968024253845 0.0
                CHANNELS 3 Zrotation Xrotation Yrotation
                End Site
                {
                    OFFSET 0.0 0.0 0.144158735871315
                }
            }
        }
    }
}
MOTION
Frames: 12
Frame Time: 0.03333333333333333
-0.5436084866523743 -0.14688679575920105 3.683264970779419 -4.121783742619807 -26.56364926238786 135.49297880972017 6.932744959417021e-07 -9.282140705265537e-07 0.8700118606797507 129.76391574397968 -24.55432580981361 -154.4837821548914 2.4398464111676057e-07 1.8439167918355976e-06 39.57463683018009 0.0 0.0 6.3611093629270335e-15 -110.94171809924117 -24.463827219797547 156.76023669405677 2.111614937960157e-06 2.176392575601453e-06 -44.17943046030898 0.0 0.0 0.0 134.44160484997266 -66.63832521043717 -155.28714251648753 103.96053260794619 27.878802062011072 -112.49255881894204 0.0 0.0 6.3611093629270335e-15 -111.6916187599645 -61.819966051950814 167.11162174529068 -78.16933744683242 37.80798614667811 72.19867614239655 -1.9310840053969444e-32 -1.5902773407317584e-15 -1.3914926731402886e-15
-0.543853223323822 -0.1474314033985138 3.681401014328003 -4.109700419470497 -26.607253249831142 135.2136277063058 8.328012955432916e-07 1.8579656420801858e-06 0.8945350255025283 128.81731198145164 -23.48188420541866 -155.32567168873217 -1.7854706898477285e-06 -2.345430197752666e-07 39.58628368839214 6.361109362927035e-15 0.0 0.0 -110.88876826025668 -24.789598203441813 156.22649331128142 -5.328001113942268e-07 2.342716124958063e-06 -43.66291314121693 0.0 0.0 0.0 133.31085047728814 -66.26950200357827 -156.37687915332825 103.69511771381255 27.445224195970987 -112.53346594243433 0.0 0.0 5.168401357378215e-15 -112.27258015204033 -62.211656116300766 166.7362255040906 -78.30405888406554 37.7901750242912 72.00617297372325 0.0 0.0 -4.9696166897867443e-17
-0.5438023209571838 -0.14805899560451508 3.6806631088256836 -4.1611924122560024 -26.638640397467125 135.17691916721677 3.283739795931928e-07 4.941325604946982e-07 1.375960190923925 128.72588254580737 -24.23958112108361 -155.25831902307837 -1.4374956924830077e-06 4.634008023067089e-06 39.822634093363 -6.3611093629270335e-15 6.361109362927032e-15 6.3611093629270335e-15 -111.29891984302512 -24.717399762648313 156.06636819634173 1.580997075294951e-06 3.6717095894758054e-06 -42.55006273404583 6.3611093629270335e-15 -1.7655625192200634e-31 -3.1805546814635168e-15 132.51764224385056 -65.9981246562143 -157.14741973530195 83.30509596524982 36.46428496620446 -74.3942194216822 -2.385416011097637e-15 4.1380371544220234e-32 -1.9878466759146976e-15 -112.76971007940278 -62.20087226995076 166.3913472236878 -79.37581739055668 38.474963930461634 73.53277689215649 7.951386703658794e-16 4.06906986851499e-32 5.86414769394836e-15
-0.5435611009597778 -0.14886850118637085 3.6794779300689697 -4.211168250082931 -26.65702293258607 135.19420315435835 -1.256117962792379e-06 9.162955773899063e-07 1.2041857814149732 127.9615949745874 -23.079315779838655 -155.8768270756984 -2.898176325110337e-06 4.153729253665062e-06 39.809283032711136 -6.361109362927033e-15 6.361109362927031e-15 1.2722218725854064e-14 -111.1851200971263 -24.081239676015077 155.7582585890318 -5.879070028145256e-06 4.015119499848205e-06 -42.45368329402385 0.0 0.0 3.1805546814635168e-15 131.75448678378908 -65.6808916705797 -157.82344663259582 83.0943555108964 36.32062081115194 -74.1307471418068 -3.975693351829396e-16 1.5902773407317584e-15 5.517382872562698e-33 -113.17213213559613 -62.1097011084392 166.0842417702043 -79.63510971018866 38.382789589039646 73.51343705627602 -7.951386703658791e-16 3.724233438979821e-32 -5.3671860249696836e-15
-0.5433890223503113 -0.14940470457077026 3.678715944290161 -4.306062330612679 -26.706365766750483 135.27339319283377 -2.716430217544093e-07 -8.316913804275869e-07 1.1076007990700125 127.18153853387022 -22.803980080291836 -157.0793745998117 -1.5334021482547102e-06 6.658965806445988e-07 40.596475683774734 3.531125038440127e-31 6.361109362927033e-15 -6.361109362927033e-15 -112.879845361625 -25.946684571215826 154.38444509531678 -2.8411686143138095e-06 2.8099390768834256e-06 -42.11607064079428 6.3611093629270335e-15 0.0 0.0 131.84991449878382 -65.62398816651975 -157.68508130347954 80.21688081436078 34.80492186446061 -68.7507772037091 4.224174186318733e-15 2.9311096510489336e-32 7.95138670365879e-16 -113.4654135012389 -61.913745235062684 165.8310358495953 -99.95339205732162 45.546402186105844 103.508946966851 -1.987846675914698e-16 1.508659379216363e-32 -8.696829207126804e-15
-0.5429447889328003 -0.14974549412727356 3.678312063217163 -4.492332445843092 -26.815205685330394 135.30783506414994 -1.3508661299181377e-06 1.2173803212517544e-06 0.9826331043505803 126.3762235556321 -21.554470041096057 -157.50670686041326 3.942606981132783e-07 -5.595325062408587e-07 41.106068507158284 0.0 0.0 0.0 -113.34654402312545 -26.794729410914883 153.93457120904128 1.7618024251717755e-07 2.0559103111509035e-06 -41.83544800378842 6.361109362927033e-15 0.0 0.0 132.10396468793024 -65.5216068357062 -157.38581755113373 97.29245721558115 27.9140366082568 -99.49820948369694 1.5448672043175555e-31 3.1805546814635168e-15 -5.565970692561154e-15 -113.8876571512094 -61.80776402353182 165.45588802073772 -79.58666343783933 38.404834109307906 72.97882810841352 7.951386703658792e-16 -7.951386703658791e-16 7.553817368475852e-15
-0.5428888201713562 -0.15013930201530457 3.67820405960083 -4.507386476102648 -26.8276960734761 135.31183199189132 6.777486381288001e-07 -1.8501254728672533e-06 1.0019283086544035 120.06836090710114 -16.35890713776884 -159.89681000859733 1.6634471451126438e-06 -3.3501645345138826e-06 44.32947302009127 0.0 -6.3611093629270335e-15 0.0 -113.1634323645142 -26.35812690704239 154.01471133149573 6.473089623958719e-06 -6.222870622393978e-07 -41.75077173047693 -6.361109362927032e-15 -1.590277340731758e-15 -8.827812596100317e-32 131.94411078640874 -65.38054312316177 -157.57839360246862 82.18846585232536 36.15178213466172 -72.37178407541835 8.945310041616142e-16 -3.103527865816518e-33 -3.975693351829396e-16 -113.95052419866848 -61.90334655297395 165.43698643241487 -102.72749009956783 46.3514239116207 106.86341366710803 -1.987846675914698e-16 8.707119845763009e-33 -5.019312856684613e-15
-0.5425698161125183 -0.1503605991601944 3.6782100200653076 -4.662401279026878 -26.774253728556257 135.43093105399157 1.889966956353473e-06 -5.979617069225029e-07 0.6861199038550541 119.62807987417993 -15.536658551698002 -160.17694711735513 -1.6547282399799973e-06 9.766600935172723e-07 44.57571852233729 -6.361109362927033e-15 6.361109362927033e-15 3.531125038440127e-31 -113.18138373408031 -26.384597034042695 153.95062085521795 -3.3226079598721288e-06 7.065768999721739e-07 -41.79435133851456 0.0 0.0 3.1805546814635168e-15 131.95966539239328 -65.43777178840709 -157.44753006095755 82.80245572241951 36.771903979748615 -73.6062264092633 6.957463365701443e-16 4.827710013492361e-33 7.951386703658792e-16 -114.3736546531601 -61.896916268516506 165.08511970151827 -107.70654055289339 52.65791021076782 111.29261633265577 3.975693351829396e-16 3.975693351829396e-16 4.969616689786745e-16
-0.5424289703369141 -0.15047839283943176 3.678194046020508 -4.669606036129785 -26.748477961255862 135.8143734348216 2.1299998698914254e-07 5.165112526960251e-07 0.9310130847160439 119.6802420925926 -16.06183722165851 -159.80191524398748 -1.1897075709751233e-06 -7.445470059804669e-07 44.62127182895653 0.0 0.0 0.0 -113.46654027324483 -26.32219271231135 154.73329662218353 -1.2509409536983903e-06 3.3829386231875673e-06 -42.28649190747227 6.3611093629270335e-15 0.0 0.0 132.37916367642887 -65.70039821824281 -156.97697080626466 82.80002543390837 36.704987163048905 -73.55554913921954 9.939233379573492e-16 0.0 0.0 -114.48942073026721 -61.41681067139853 164.9510666746913 -101.2134086448322 44.21672521422302 105.01772699640489 9.93923337957349e-16 -1.5902773407317584e-15 -3.155706598014583e-15
-0.5421016216278076 -0.1507118046283722 3.6785449981689453 -4.812498570111009 -26.59706484680297 135.76895705499567 6.438907630154877e-07 1.4644737769433566e-06 0.8766762949027528 122.62657724272034 -18.695518605360604 -158.8213371807319 -3.6875599857820376e-07 3.6414933808462655e-07 42.60568128254927 0.0 6.3611093629270335e-15 0.0 -112.8312506897249 -25.171907254196295 155.24241429788913 -4.852797719345079e-06 -1.7979028463131596e-06 -43.04253355220591 -6.3611093629270335e-15 -3.1805546814635168e-15 -1.7655625192200634e-31 131.93724625046133 -65.74211329524992 -157.3039062528365 83.3931525339371 37.16958696242828 -74.84714886603906 -1.5902773407317584e-15 -1.5902773407317584e-15 -7.951386703658792e-16 -114.7001132067631 -61.40143233712796 164.88820800413092 -79.77079864241067 38.01163887661896 72.61957603337531 -7.951386703658791e-16 7.951386703658791e-16 -1.7393658414253603e-15
-0.5421180129051208 -0.15073619782924652 3.6785659790039062 -4.747664085764608 -26.535521388341834 135.77955168561985 -1.1608384728834954e-06 9.987195234913927e-07 0.8122980576151264 124.2215536743877 -19.533092836877426 -158.9500766833487 2.2901545450089746e-06 -4.488438390289764e-06 43.367742158074115 0.0 -6.3611093629270335e-15 0.0 -112.25188912822247 -24.693380330784407 155.2468024886826 4.2340577433099467e-07 -1.4383817059419706e-07 -42.78562963812564 0.0 0.0 -3.1805546814635168e-15 131.65790279553732 -65.7708367294257 -157.58486871361626 79.93003328511548 35.5821359271312 -68.85204820319872 -1.4908850069360234e-15 0.0 0.0 -114.61963627119835 -61.570518423576985 164.95975488544008 -79.75798243285944 37.88230760092602 72.5882585725196 -7.951386703658792e-16 2.4828222926532145e-32 -3.578124016646457e-15
-0.5425646901130676 -0.15114079415798187 3.678946018218994 -4.426628746718784 -26.338874853017522 136.01978653545217 -6.854407116464562e-07 1.8730098512970682e-06 1.1958482933210415 120.02979119436426 -16.38410026639848 -159.2434047249906 -4.295106007875869e-06 -7.368301524295983e-07 44.77671991210506 -6.3611093629270335e-15 -1.590277340731758e-15 -6.3611093629270335e-15 -112.25848927339914 -24.96100597997502 155.6028420207175 2.6734118278795725e-06 1.39367714362932e-06 -42.02926710933231 0.0 0.0 3.1805546814635164e-15 132.2529137164513 -65.53214562302178 -157.17222747478695 79.68435030888446 35.54345977285382 -67.70041564843696 -1.0436195048552163e-15 -3.620782510119271e-33 3.9756933518293955e-16 -114.10767382585583 -61.47937919324024 165.46232577779048 -79.90836051682376 37.93717530556617 72.8658186087672 -1.5902773407317584e-15 7.951386703658792e-16 -2.1369351766083005e-15
